<?xml version="1.0" standalone="no"?><!DOCTYPE svg PUBLIC "-//W3C//DTD SVG 1.1//EN" "http://www.w3.org/Graphics/SVG/1.1/DTD/svg11.dtd"><svg t="1601457000670" class="icon" viewBox="0 0 1024 1024" version="1.1" xmlns="http://www.w3.org/2000/svg" p-id="935" xmlns:xlink="http://www.w3.org/1999/xlink" width="200" height="200"><defs><style type="text/css"></style></defs><path d="M770.16 854.07H246.25A91.39 91.39 0 0 1 155 762.78V407.29A91.39 91.39 0 0 1 246.25 316h523.91a91.39 91.39 0 0 1 91.29 91.29v355.49a91.39 91.39 0 0 1-91.29 91.29zM246.25 376.86a30.46 30.46 0 0 0-30.43 30.43v355.49a30.46 30.46 0 0 0 30.43 30.43h523.91a30.46 30.46 0 0 0 30.43-30.43V407.29a30.46 30.46 0 0 0-30.43-30.43z" p-id="936"></path><path d="M697.71 376.86h-379V252.37c0-104.49 85-189.49 189.51-189.49s189.51 85 189.51 189.49zM379.56 316h257.29v-63.63c0-70.92-57.71-128.63-128.65-128.63s-128.64 57.71-128.64 128.63z" p-id="937"></path></svg>